<svg width="512" height="469" viewBox="0 0 512 469" fill="none" xmlns="http://www.w3.org/2000/svg">
<path fill-rule="evenodd" clip-rule="evenodd" d="M16.2398 0.565714C-1.22619 3.56971 -5.94819 25.6967 8.72981 35.7607C12.2028 38.1417 12.5668 38.1737 39.5168 38.4657C64.1968 38.7327 66.8378 38.9227 67.3018 40.4657C67.5838 41.4037 81.7708 100.631 98.8288 172.083C123.269 274.453 130.366 302.782 132.304 305.712C133.706 307.829 136.65 310.341 139.146 311.55L143.527 313.671H297.252C448.765 313.671 451.032 313.642 454.878 311.68C458.723 309.719 462.937 305.037 464.295 301.218C466.652 294.588 511.892 108.807 511.874 105.83C511.823 97.3417 505.52 89.7437 496.876 87.7517C493.883 87.0627 430.234 86.7117 305.146 86.6947C202.158 86.6817 117.896 86.3767 117.896 86.0177C117.896 85.2857 102.398 20.2927 100.821 14.4077C100.266 12.3377 98.3748 9.00871 96.6198 7.00871C90.7288 0.299713 90.1598 0.207715 53.3958 0.0197145C35.2458 -0.0732855 18.5258 0.171714 16.2398 0.565714ZM467.404 127.921C465.832 134.594 431.731 272.447 431.287 273.921C430.79 275.576 423.527 275.671 297.054 275.671H163.346L145.958 202.921C136.394 162.909 128.365 129.159 128.116 127.921L127.663 125.671H297.798H467.934L467.404 127.921ZM166.396 341.678C157.536 342.727 152.31 344.387 143.396 348.986C131.753 354.992 122.321 364.793 116.493 376.941C111.251 387.867 109.896 393.735 109.896 405.51C109.896 430.431 124.212 452.572 147.168 463.153C156.858 467.62 164.591 468.994 177.075 468.468C189.727 467.935 199.212 464.858 209.161 458.06C236.979 439.053 245.451 403.305 229.16 373.671C224.057 364.389 212.353 353.137 202.896 348.42C191.161 342.566 178.556 340.238 166.396 341.678ZM397.057 341.768C377.807 344.201 358.861 356.951 349.653 373.671C339.404 392.279 338.74 414.581 347.879 433.171C355.987 449.662 371.741 462.467 389.626 467.101C396.632 468.916 411.408 469.16 419.097 467.587C422.011 466.99 428.564 464.503 433.658 462.059C446.656 455.822 456.047 446.431 462.284 433.433C464.728 428.339 467.215 421.786 467.812 418.872C469.212 412.03 469.201 398.232 467.791 391.47C466.264 384.152 460.047 371.219 455.023 364.911C441.692 348.174 418.776 339.024 397.057 341.768ZM180.774 381.227C186.879 383.04 193.085 388.224 196.189 394.103C199.189 399.786 199.189 410.556 196.189 416.239C193.419 421.484 187.205 427.073 182.277 428.751C177.177 430.487 168.295 430.336 163.823 428.438C147.238 421.397 143.276 399.388 156.318 386.747C159.819 383.353 168.305 379.763 172.964 379.704C174.377 379.686 177.891 380.371 180.774 381.227ZM412.809 381.238C423.418 384.388 430.464 394.247 430.272 405.671C429.897 427.989 402.197 438.655 387.112 422.29C374.613 408.73 379.799 387.541 397.079 381.573C403.653 379.302 406.115 379.25 412.809 381.238Z" fill="#F26522"/>
</svg>
