<svg width="512" height="511" viewBox="0 0 512 511" fill="none" xmlns="http://www.w3.org/2000/svg">
<path fill-rule="evenodd" clip-rule="evenodd" d="M55.827 1.4221C45.232 3.7241 40.279 7.1601 23.457 23.8811C10.573 36.6881 7.296 40.5441 4.741 45.9061C-1.581 59.1691 -1.58 72.6491 4.743 85.9061C7.586 91.8661 14.619 99.1951 89.434 174.156L171.025 255.906L89.434 337.656C14.619 412.617 7.586 419.946 4.743 425.906C-1.587 439.178 -1.581 452.685 4.761 465.906C7.31 471.22 10.725 475.252 23.477 488.005C36.528 501.055 40.216 504.159 46.055 507.005C52.858 510.32 53.349 510.406 65.555 510.406C86.897 510.406 78.227 517.48 173.826 422.057L255.576 340.457L337.326 422.048C432.931 517.466 424.281 510.406 445.576 510.406C457.806 510.406 458.292 510.321 465.097 507.005C470.936 504.159 474.624 501.055 487.675 488.005C500.427 475.252 503.842 471.22 506.391 465.906C512.733 452.685 512.739 439.178 506.409 425.906C503.566 419.946 496.533 412.617 421.718 337.656L340.127 255.906L421.718 174.156C496.533 99.1951 503.566 91.8661 506.409 85.9061C512.739 72.6341 512.733 59.1271 506.391 45.9061C503.842 40.5921 500.427 36.5601 487.675 23.8071C474.922 11.0551 470.89 7.6401 465.576 5.0911C452.355 -1.2509 438.848 -1.2569 425.576 5.0731C419.616 7.9161 412.287 14.9491 337.326 89.7641L255.576 171.355L173.826 89.8291C111.216 27.3901 90.854 7.6611 86.856 5.5591C81.475 2.7291 70.358 -0.1069 65.076 0.00309993C63.426 0.0370999 59.264 0.6761 55.827 1.4221Z" fill="#F44336"/>
</svg>
