<svg width="513" height="512" viewBox="0 0 513 512" fill="none" xmlns="http://www.w3.org/2000/svg">
<path fill-rule="evenodd" clip-rule="evenodd" d="M415.763 0.569286C407.833 2.01329 401.434 4.52229 394.813 8.78429C388.496 12.8503 348 52.0093 348 54.0513C348 55.4583 456.196 163.601 457.604 163.601C458.207 163.601 468.336 153.814 480.113 141.851C497.759 123.926 502.168 118.87 505.178 113.101C514.14 95.9223 514.339 78.0043 505.76 60.6013C503.118 55.2423 498.911 50.4053 481.782 33.0373C459.587 10.5333 454.024 6.26629 442 2.52729C434.526 0.203286 422.647 -0.683714 415.763 0.569286ZM173.816 227.351C49.618 351.621 32.022 369.594 31.122 373.101C18.77 421.211 0 498.464 0 501.188C0 506.049 5.326 511.601 9.987 511.601C14.235 511.601 137.647 481.09 141.552 479.074C143.231 478.208 208.03 414.072 285.55 336.551L426.495 195.603L371.501 140.602C341.254 110.351 316.277 85.6013 315.995 85.6013C315.714 85.6013 251.733 149.388 173.816 227.351Z" fill="black"/>
</svg>
