<svg width="512" height="512" viewBox="0 0 512 512" fill="none" xmlns="http://www.w3.org/2000/svg">
<path fill-rule="evenodd" clip-rule="evenodd" d="M245.344 1.31093C237.06 3.32293 230.737 6.94493 224.313 13.3559C217.775 19.8819 213.819 27.0649 212 35.7149C211.23 39.3719 210.885 67.3449 210.885 125.965V210.916H125.934C67.3143 210.916 39.3412 211.261 35.6842 212.031C27.0433 213.848 19.8502 217.807 13.3132 224.344C-4.43775 242.095 -4.43775 269.79 13.3132 287.46C19.8382 293.955 27.0702 297.938 35.6842 299.782C39.3992 300.577 66.3862 300.916 125.934 300.916H210.885V385.867C210.885 444.487 211.23 472.46 212 476.117C213.822 484.78 217.773 491.95 224.313 498.46C242.155 516.221 269.765 516.233 287.429 498.488C293.924 491.963 297.907 484.731 299.751 476.117C300.546 472.402 300.885 445.415 300.885 385.867V300.916H385.836C444.456 300.916 472.429 300.571 476.086 299.801C484.749 297.979 491.919 294.028 498.429 287.488C516.189 269.647 516.201 242.089 498.457 224.344C491.845 217.733 484.074 213.469 475.761 211.892C472.665 211.305 436.775 210.916 385.749 210.916H300.885V125.965C300.885 67.3449 300.54 39.3719 299.77 35.7149C297.953 27.0739 293.994 19.8809 287.457 13.3439C276.043 1.92993 260.764 -2.43507 245.344 1.31093Z" fill="black"/>
</svg>
