<svg width="512" height="512" viewBox="0 0 512 512" fill="none" xmlns="http://www.w3.org/2000/svg">
<path fill-rule="evenodd" clip-rule="evenodd" d="M215.708 2.18769C209.498 6.41369 208.895 8.08169 204.488 33.1957L200.332 56.8757L194.961 57.9907C189.122 59.2037 71.3522 106.399 63.2702 110.765C52.5752 116.543 42.5682 128.527 38.5972 140.311C37.6472 143.131 28.4632 193.138 18.1882 251.438C1.43616 346.495 -0.433833 358.221 0.0691667 365.021C1.81217 388.591 18.9832 408.875 41.8672 414.398C45.3602 415.241 80.3832 421.584 119.695 428.495C159.008 435.405 191.227 441.145 191.294 441.249C191.36 441.353 192.434 447.513 193.679 454.938C197.438 477.348 200.936 485.328 211.653 495.938C219.014 503.226 227.646 508.003 237.771 510.389C249.805 513.225 238.003 514.947 388.718 488.368C430.793 480.947 467.867 474.209 471.105 473.393C495.175 467.327 513.141 442.597 511.393 417.938C510.881 410.71 463.813 141.768 461.613 133.498C458.211 120.71 447.099 106.991 435.06 100.716C423.817 94.8557 310.18 48.9627 305.234 48.2847C302.72 47.9407 300.484 47.3687 300.266 47.0147C300.047 46.6607 298.453 38.3157 296.724 28.4717C294.995 18.6267 292.945 9.34369 292.169 7.84269C287.635 -0.926308 275.338 -2.49431 268.346 4.80369C263.623 9.73369 263.491 13.0717 267.2 33.8167C269.031 44.0577 270.459 52.4537 270.373 52.4737C268.693 52.8667 257.58 61.1877 252.565 65.8077C248.905 69.1797 245.263 71.9377 244.47 71.9377C243.677 71.9377 242.171 70.9907 241.124 69.8337C240.077 68.6767 237.195 66.5717 234.719 65.1557C232.244 63.7407 230.118 62.5247 229.996 62.4547C229.875 62.3847 231.6 52.0027 233.83 39.3827C236.103 26.5197 237.673 14.8107 237.403 12.7347C236.061 2.42169 223.987 -3.44731 215.708 2.18769ZM359.218 101.442C391.118 114.492 418.568 125.843 420.218 126.667C424.55 128.832 428.61 132.872 430.87 137.267C433.704 142.778 482.036 416.566 481.332 423.12C480.382 431.951 473.27 441.298 465.599 443.798C460.983 445.302 253.023 481.938 249.101 481.938C241.103 481.938 232.478 476.609 228.474 469.192C226.166 464.918 222.142 448.181 223.174 447.149C223.403 446.92 230.481 447.993 238.904 449.532C256.61 452.77 267.549 453.059 276.218 450.519C294.57 445.141 308.991 430.841 314.115 412.938C315.376 408.532 349.799 214.906 352.107 199.239C352.914 193.757 351.285 182.527 348.666 175.528C344.351 163.994 340.152 159.411 303.155 125.852C283.664 108.174 267.718 93.3837 267.718 92.9867C267.718 91.4217 281.792 80.3357 285.878 78.6807C294.566 75.1637 296.286 75.6977 359.218 101.442ZM192.63 100.164C191.62 105.789 191.065 111.526 191.396 112.914C193.329 121.009 198.257 124.928 206.507 124.934C211.242 124.938 212.215 124.545 215.8 121.188C219.606 117.624 219.916 116.875 222.022 106.103L224.239 94.7677L264.228 130.977C286.223 150.893 307.322 170.169 311.115 173.813C319.056 181.44 322.021 187.068 321.965 194.405C321.902 202.605 285.876 404.708 283.726 408.922C280.845 414.569 274.568 419.635 268.134 421.506L262.467 423.153L154.359 404.045C55.4922 386.571 45.8662 384.7 41.7352 382.159C36.0752 378.677 31.0522 371.346 30.1352 365.231C29.5782 361.519 32.8172 341.371 46.1662 265.509C55.3672 213.22 63.8092 165.589 64.9252 159.662C67.0822 148.209 69.5462 143.187 75.1652 138.789C77.7372 136.776 190.385 90.3077 193.342 90.0397C194.124 89.9687 193.906 93.0597 192.63 100.164ZM189.959 150.214C186.374 152.284 184.918 155.12 183.641 162.525C182.985 166.327 181.946 169.769 181.333 170.173C180.72 170.577 178.618 170.914 176.662 170.923C167.412 170.963 153.934 178.327 146.895 187.188C139.614 196.353 136.56 205.115 136.56 216.84C136.56 231.198 143.08 241.604 159.88 254.058C164.532 257.507 166.733 259.776 166.456 260.84C166.227 261.719 163.407 277.428 160.189 295.749L154.337 329.059L151.778 328.436C146.307 327.103 138.952 323.052 132.986 318.084C125.834 312.129 122.357 311.039 117.886 313.351C114.042 315.339 112.718 317.704 112.718 322.585C112.718 325.872 113.44 327.046 118.258 331.603C125.47 338.423 134.217 343.673 143.088 346.506C149.375 348.514 150.195 349.059 150.023 351.111C149.915 352.391 149.514 356.672 149.131 360.624C148.446 367.702 148.481 367.855 151.5 370.874C155.456 374.83 160.275 375.023 164.583 371.398C167.133 369.253 167.799 367.679 168.879 361.25C169.583 357.065 170.698 353.101 171.359 352.44C172.019 351.78 175.249 350.958 178.535 350.615C203.628 347.992 224.718 323.66 224.718 297.333C224.718 279.738 216.054 265.786 198.37 254.904C193.987 252.206 190.005 249.867 189.522 249.706C188.676 249.424 197.928 194.395 199.003 193.32C200.006 192.317 205.901 196.09 211.793 201.507C218.964 208.099 222.726 208.69 227.929 204.04C230.616 201.64 231.173 200.419 231.173 196.926C231.173 193.004 230.679 192.239 224.094 185.96C219.59 181.665 214.506 177.999 210.117 175.881C206.322 174.051 203.038 172.422 202.819 172.263C202.599 172.103 202.942 168.804 203.582 164.932C204.802 157.546 203.998 154.076 200.373 151.067C198.135 149.209 192.499 148.748 189.959 150.214ZM178.254 193.188C177.978 194.426 176.135 204.66 174.158 215.932C172.181 227.203 170.436 236.553 170.28 236.71C169.613 237.377 159.5 227.418 158.105 224.719C153.014 214.874 159.921 198.079 171.218 192.838C176.796 190.25 178.886 190.354 178.254 193.188ZM191.133 273.879C201.207 280.811 205.287 288.74 204.493 299.843C203.547 313.058 193.723 325.628 181.271 329.553C178.23 330.511 175.455 331.008 175.104 330.657C174.61 330.164 181.217 289.762 184.42 273.688C185.11 270.227 185.855 270.248 191.133 273.879Z" fill="#F36523"/>
</svg>
