<svg width="512" height="512" viewBox="0 0 512 512" fill="none" xmlns="http://www.w3.org/2000/svg">
<path fill-rule="evenodd" clip-rule="evenodd" d="M230.521 0.646866C151.846 9.42987 84.5814 50.3039 41.6624 115.409C6.57543 168.631 -7.21157 235.178 3.59943 299.12C16.6034 376.027 66.0664 444.65 135.021 481.452C184.943 508.095 243.36 517.537 299.521 508.042C376.428 495.038 445.051 445.575 481.853 376.62C500.797 341.123 510.41 304.736 511.706 263.62C513.288 213.446 501.268 166.587 476.049 124.614C435.795 57.6179 371.088 14.3099 293.021 2.11287C280.723 0.191866 242.608 -0.703134 230.521 0.646866ZM287.021 42.1559C333.457 49.0439 375.377 70.1129 408.452 103.189C441.791 136.527 462.44 177.819 469.677 225.62C472.039 241.216 472.039 270.024 469.677 285.62C462.44 333.421 441.791 374.713 408.452 408.051C375.114 441.39 333.822 462.039 286.021 469.276C270.425 471.638 241.617 471.638 226.021 469.276C178.22 462.039 136.928 441.39 103.59 408.051C70.2514 374.713 49.6024 333.421 42.3654 285.62C40.0034 270.024 40.0034 241.216 42.3654 225.62C49.6024 177.819 70.2514 136.527 103.59 103.189C140.452 66.3269 186.484 45.2409 241.021 40.2359C249.434 39.4639 276.481 40.5929 287.021 42.1559ZM347.021 170.196C344.782 171.154 321.451 193.749 282.273 232.902L221.025 294.11L195.773 269.008C181.884 255.202 168.946 242.83 167.021 241.513C164.191 239.578 162.245 239.12 156.857 239.12C151.066 239.12 149.635 239.513 145.934 242.12C137.766 247.873 134.832 258.359 138.94 267.12C141.551 272.688 208.142 338.979 213.239 341.084C218.317 343.182 224.584 343.011 229.455 340.643C235.242 337.83 371.37 201.498 373.481 196.402C376.532 189.036 374.498 179.074 368.889 173.918C363.356 168.831 353.952 167.23 347.021 170.196Z" fill="#F36523"/>
</svg>
