<svg width="512" height="512" viewBox="0 0 512 512" fill="none" xmlns="http://www.w3.org/2000/svg">
<path fill-rule="evenodd" clip-rule="evenodd" d="M250.798 1.33398C236.896 4.34998 225.346 11.968 216.152 24.183C213.102 28.236 187.68 67.268 159.658 110.922C131.636 154.576 107.543 191.193 106.117 192.293C103.635 194.207 101.583 194.314 58.27 194.793L13.017 195.293L8.96504 197.976C2.70304 202.122 0.167044 206.99 0.167044 214.866C0.167044 220.323 0.623044 222.128 2.85004 225.493C4.32504 227.722 7.25004 230.615 9.35004 231.92L13.167 234.293L58.346 234.581C108.879 234.904 111.424 234.657 123.603 228.257C127.345 226.291 132.724 222.242 135.87 219.024C139.823 214.981 157.289 188.855 195.188 130.293C224.731 84.643 249.817 46.292 250.935 45.068C254.031 41.68 260.868 39.443 266.268 40.052C275.72 41.117 283.667 50.076 283.667 59.665C283.667 63.234 281.76 68.081 274.013 84.203C254.492 124.826 244.678 148.519 243.945 156.793C242.356 174.74 256.849 196.771 276.667 206.533C293.001 214.578 288.168 214.16 371.667 214.759C454.76 215.355 449.439 214.869 454.55 222.327C459.996 230.275 458.292 238.366 449.551 246.056C438.809 255.508 436.098 265.246 441.302 275.688C444.335 281.775 449.234 285.744 457.522 288.83C469.794 293.399 474.527 302.899 469.762 313.392C467.289 318.837 463.028 321.685 455.552 322.889C447.552 324.177 443.819 325.795 439.973 329.641C430.864 338.75 432.139 353.958 442.626 361.293C450.687 366.931 455.45 372.121 456.192 376.075C457.227 381.594 455.957 386.393 452.383 390.463C448.315 395.097 444.187 396.792 436.949 396.799C425.052 396.81 416.568 401.337 412.267 409.969C406.982 420.574 410.333 430.855 421.667 438.812C428.913 443.9 431.663 448.168 431.665 454.331C431.667 459.284 428.138 466.467 424.344 469.234C421.551 471.271 420.479 471.298 322.771 471.793L224.02 472.293L219.966 474.976C213.725 479.107 211.167 483.995 211.167 491.793C211.167 499.591 213.725 504.479 219.967 508.61L224.02 511.293L321.816 511.562C428.182 511.855 427.203 511.899 439.463 506.286C456.259 498.597 467.566 483.116 470.705 463.511C472.221 454.048 471.51 444.143 468.753 436.298C467.62 433.073 466.799 430.333 466.93 430.208C467.06 430.084 469.953 427.935 473.357 425.433C494.525 409.88 501.946 383.035 491.998 358.004L489.498 351.715L495.833 344.995C516.855 322.693 516.74 288.882 495.564 266.354L489.96 260.391L492.826 254.268C504.846 228.581 492.962 194.924 467.167 181.604C454.606 175.117 458.942 175.441 376.667 174.842L301.167 174.293L296.272 171.865C290.363 168.934 285.175 163.952 284.268 160.34C283.408 156.912 287.459 147.414 306.682 107.793C315.097 90.45 321.952 75.007 322.573 71.994C325.237 59.088 323.243 44.863 317.043 32.539C312.472 23.453 300.908 11.662 291.981 6.98497C279.427 0.407975 264.503 -1.64002 250.798 1.33398ZM245.458 306.723C243.969 307.204 241.494 308.501 239.958 309.604C238.423 310.708 211.967 346.724 181.167 389.642C137.482 450.512 124.367 468.126 121.531 469.733C117.081 472.254 112.164 472.367 107.999 470.043C106.274 469.081 88.569 452.768 68.654 433.793C48.74 414.818 31.038 398.393 29.317 397.293C27.009 395.818 24.478 395.293 19.677 395.293C11.868 395.293 6.98304 397.848 2.85004 404.093C-0.680956 409.428 -0.982956 419.498 2.23504 424.58C5.31804 429.449 78.244 498.442 84.977 502.858C94.187 508.901 102.375 511.256 114.167 511.255C129.036 511.254 141.395 506.421 152.111 496.415C155.681 493.081 176.748 464.584 212.45 414.793C242.62 372.718 268.174 336.963 269.236 335.337C270.646 333.178 271.167 330.616 271.167 325.837C271.167 318.092 268.627 313.118 262.652 309.165C258.514 306.426 250.085 305.229 245.458 306.723Z" fill="#F36523"/>
</svg>
