<svg width="512" height="512" viewBox="0 0 512 512" fill="none" xmlns="http://www.w3.org/2000/svg">
<path fill-rule="evenodd" clip-rule="evenodd" d="M222 17V34H230.5H239L238.995 54.25L238.99 74.5L230.245 76.891C184.571 89.378 140.918 119.163 112.652 157.126L109.952 160.752L123.615 170.565L137.279 180.377L139.389 177.848C151.743 163.047 157.929 156.448 166 149.463C211.42 110.153 270.344 94.531 328.187 106.464C401.181 121.523 458.115 177.922 473.574 250.487C488.344 319.82 463.255 390.81 408 436.029C386.245 453.833 357.429 467.627 329.61 473.553C268.623 486.545 205.492 468.637 160.158 425.486C155.396 420.953 148.374 413.357 144.553 408.605C140.732 403.853 137.318 400.085 136.966 400.232C136.614 400.38 130.425 404.743 123.213 409.928C114.548 416.157 110.337 419.777 110.8 420.597C113.483 425.354 125.948 439.618 135.553 448.923C196.056 507.534 281.986 526.807 362.5 499.824C382.712 493.05 412.747 476.397 429.485 462.684C437.593 456.041 453.694 440.094 460.518 431.947C485.908 401.633 503.465 362.362 509.671 322C512.121 306.067 512.113 273.82 509.654 258.036C502.348 211.132 482.076 169.643 450.567 137.104C420.256 105.803 389.112 87.779 342.25 74.419C341.303 74.149 341 69.2 341 54.031V34H349.5H358V17V0H290H222V17ZM307 51.25V68.5L290 68.526L273 68.553V51.276V34H290H307V51.25ZM343.486 213.01L312.479 244.017L306.49 241.904C288.385 235.517 268.038 240.282 254.16 254.16C234.937 273.383 234.018 303.144 251.999 324.145C263.269 337.308 284.384 343.973 301.972 339.921C319.543 335.872 334.756 320.871 339.547 302.869C341.738 294.638 341.357 282.725 338.657 275L336.385 268.5L367.437 237.25L398.489 205.999L386.491 194.001L374.493 182.003L343.486 213.01ZM34 222V239H111H188V222V205H111H34V222ZM0 290V307H77H154V290V273H77H0V290ZM297.698 275.096C306.25 279.236 309.492 290.042 304.713 298.48C298.175 310.024 280.841 309.567 275.096 297.698C271.672 290.624 272.584 284.218 277.814 278.628C283.257 272.809 290.366 271.546 297.698 275.096ZM34 357.994V375H111.024H188.048L187.774 358.25L187.5 341.5L110.75 341.244L34 340.988V357.994Z" fill="#F36523"/>
</svg>
